<svg width="11" height="12" viewBox="0 0 11 12" fill="none" xmlns="http://www.w3.org/2000/svg">
<path d="M1.22222 12C0.886111 12 0.59838 11.8825 0.359028 11.6475C0.119676 11.4125 0 11.13 0 10.8V2.4C0 2.07 0.119676 1.7875 0.359028 1.5525C0.59838 1.3175 0.886111 1.2 1.22222 1.2H1.83333V0H3.05556V1.2H7.94444V0H9.16667V1.2H9.77778C10.1139 1.2 10.4016 1.3175 10.641 1.5525C10.8803 1.7875 11 2.07 11 2.4V10.8C11 11.13 10.8803 11.4125 10.641 11.6475C10.4016 11.8825 10.1139 12 9.77778 12H1.22222ZM1.22222 10.8H9.77778V4.8H1.22222V10.8Z" fill="white"/>
</svg>
